# xmcd
# 
# Track frame offsets:
#     150
#     13719
#     27139
#     45655
#     59794
#     72084
#     88812
#     103398
#     120303
#     135966
#     153743
# 
# Disc length: 2266
# 
# Revision: 0
# Processed by: cddbd v1.5.2PL0 Copyright (c) Steve Scherf et al.
# Submitted via: fre:ac v1.0.17
# 
DISCID=9308d80b
DTITLE=Matti Esko - J‰rvenp‰‰ - Pasila
DYEAR=2015
DGENRE=Country
TTITLE0=Syd‰men Huoltomies
TTITLE1=Pohjant‰hti
TTITLE2=Kuuluuko, Kuuntelen
TTITLE3=Rinnassa Varkaan
TTITLE4=Cortinan Matka
TTITLE5=Mik‰ Saa Miehen Kulkemaan
TTITLE6=Kiiltokuvia ja Katinkultaa
TTITLE7=Vanha Kunnon Rakkaus
TTITLE8=Untasi Vartioin
TTITLE9=Sisua
TTITLE10=Miehet Ovat Kulkeneet Luotejakin P‰in
EXTD=
EXTT0=
EXTT1=
EXTT2=
EXTT3=
EXTT4=
EXTT5=
EXTT6=
EXTT7=
EXTT8=
EXTT9=
EXTT10=
PLAYORDER=
